<svg width="19" height="10" viewBox="0 0 19 10" fill="none" xmlns="http://www.w3.org/2000/svg">
<path d="M0.215567 4.45975C0.0775395 4.6006 0 4.79161 0 4.99077C0 5.18993 0.0775395 5.38094 0.215567 5.52179L4.38059 9.7707C4.44851 9.84244 4.52976 9.89966 4.61958 9.93902C4.70941 9.97839 4.80602 9.99911 4.90378 9.99997C5.00154 10.0008 5.09849 9.98183 5.18898 9.94407C5.27946 9.9063 5.36166 9.85053 5.43079 9.78001C5.49992 9.70949 5.55459 9.62563 5.59161 9.53332C5.62863 9.44102 5.64726 9.34211 5.64641 9.24238C5.64556 9.14266 5.62525 9.0441 5.58666 8.95246C5.54808 8.86083 5.49199 8.77795 5.42167 8.70866L2.51344 5.74186L17.5 5.54266C17.6953 5.54266 17.8825 5.46353 18.0206 5.32267C18.1587 5.18181 18.2363 4.99077 18.2363 4.79157C18.2363 4.59237 18.1587 4.40133 18.0206 4.26047C17.8825 4.11961 17.6953 4.04048 17.5 4.04048L2.51344 4.23968L5.42167 1.27288C5.55578 1.13122 5.62999 0.941496 5.62832 0.744563C5.62664 0.54763 5.54921 0.359248 5.4127 0.21999C5.27619 0.0807314 5.09153 0.0017395 4.89848 2.86102e-05C4.70544 -0.00168228 4.51945 0.0740223 4.38059 0.210839L0.215567 4.45975Z" fill="#0F3B49"/>
</svg>
