<svg width="146" height="56" viewBox="0 0 146 56" fill="none" xmlns="http://www.w3.org/2000/svg">
<mask id="path-1-inside-1_156_2149" fill="white">
<path d="M135.999 0C141.522 0 145.999 4.47715 145.999 10V46C145.999 51.5228 141.522 56 135.999 56H14.9991C9.47636 55.9999 4.99915 51.5228 4.99915 46V35.463C4.99915 35.1995 4.8952 34.9467 4.70988 34.7595L0.695328 30.7034C0.309672 30.3137 0.309641 29.6862 0.695259 29.2965L4.70995 25.2395C4.89522 25.0523 4.99915 24.7995 4.99915 24.5361V10C4.99915 4.4772 9.47636 7.12378e-05 14.9991 0H135.999Z"/>
</mask>
<path d="M145.999 10H146.499H145.999ZM14.9991 56L14.9991 56.5H14.9991V56ZM4.99915 46H4.49915H4.99915ZM14.9991 0V-0.5H14.9991L14.9991 0ZM4.70995 25.2395L4.35455 24.8878L4.70995 25.2395ZM0.695259 29.2965L0.339856 28.9449L0.695259 29.2965ZM4.70988 34.7595L5.06525 34.4078L4.70988 34.7595ZM135.999 0V0.5C141.246 0.5 145.499 4.75329 145.499 10H145.999H146.499C146.499 4.20101 141.798 -0.5 135.999 -0.5V0ZM145.999 10H145.499V46H145.999H146.499V10H145.999ZM145.999 46H145.499C145.499 51.2467 141.246 55.5 135.999 55.5V56V56.5C141.798 56.5 146.499 51.799 146.499 46H145.999ZM135.999 56V55.5H14.9991V56V56.5H135.999V56ZM14.9991 56L14.9992 55.5C9.75249 55.4999 5.49915 51.2467 5.49915 46H4.99915H4.49915C4.49915 51.799 9.20022 56.4999 14.9991 56.5L14.9991 56ZM4.99915 46H5.49915V35.463H4.99915H4.49915V46H4.99915ZM4.70988 34.7595L5.06525 34.4078L1.0507 30.3517L0.695328 30.7034L0.339959 31.0551L4.35451 35.1112L4.70988 34.7595ZM0.695259 29.2965L1.05066 29.6482L5.06536 25.5912L4.70995 25.2395L4.35455 24.8878L0.339856 28.9449L0.695259 29.2965ZM4.99915 24.5361H5.49915V10H4.99915H4.49915V24.5361H4.99915ZM4.99915 10H5.49915C5.49915 4.75335 9.7525 0.500068 14.9992 0.5L14.9991 0L14.9991 -0.5C9.20022 -0.499925 4.49915 4.20105 4.49915 10H4.99915ZM14.9991 0V0.5H135.999V0V-0.5H14.9991V0ZM4.70995 25.2395L5.06536 25.5912C5.34326 25.3104 5.49915 24.9312 5.49915 24.5361H4.99915H4.49915C4.49915 24.6678 4.44718 24.7942 4.35455 24.8878L4.70995 25.2395ZM0.695328 30.7034L1.0507 30.3517C0.857869 30.1568 0.857854 29.8431 1.05066 29.6482L0.695259 29.2965L0.339856 28.9449C-0.238571 29.5294 -0.238525 30.4706 0.339959 31.0551L0.695328 30.7034ZM4.99915 35.463H5.49915C5.49915 35.0678 5.34322 34.6886 5.06525 34.4078L4.70988 34.7595L4.35451 35.1112C4.44717 35.2048 4.49915 35.3312 4.49915 35.463H4.99915Z" fill="#4DBF92" mask="url(#path-1-inside-1_156_2149)"/>
<path d="M90.4343 26.3618H91.8674V29.6381H90.4343V26.3618ZM87.6103 30.5974H89.0434V25.4025H87.6103V30.5974ZM84.8337 33.2844H86.2668V22.7155H84.8337V33.2844ZM82.1942 35.3579H83.6273V20.7388H82.1942V35.3543V35.3579ZM79.3684 31.7878H80.8015V24.2122H79.3684V31.7878ZM76.4978 37.52H77.9309V18.1557H76.4933V37.52H76.4978ZM73.6729 40.2965H75.106V15.7035H73.6729V40.2965ZM70.8963 36.4997H72.3294V19.5001H70.8963V36.4998V36.4997ZM68.0239 31.6722H69.457V24.5068H68.0239V31.6722ZM65.2474 29.964H66.6805V26.0296H65.2474V29.9705V29.964ZM62.4708 32.069H63.9039V23.9282H62.4708V32.0716V32.069ZM59.739 36.0098H61.1721V19.5243H59.7391V36.0126L59.739 36.0098ZM56.9625 33.4912H58.3956V22.3671H56.9625V33.494V33.4912ZM54.1331 30.5974H55.5661V25.4025H54.1331V30.5974Z" fill="#4DBF92"/>
<path d="M129.434 26.3618H130.867V29.6381H129.434V26.3618ZM126.61 30.5974H128.043V25.4025H126.61V30.5974ZM123.834 33.2844H125.267V22.7155H123.834V33.2844ZM121.194 35.3579H122.627V20.7388H121.194V35.3543V35.3579ZM118.368 31.7878H119.801V24.2122H118.368V31.7878ZM115.498 37.52H116.931V18.1557H115.493V37.52H115.498ZM112.673 40.2965H114.106V15.7035H112.673V40.2965ZM109.896 36.4997H111.329V19.5001H109.896V36.4998V36.4997ZM107.024 31.6722H108.457V24.5068H107.024V31.6722ZM104.247 29.964H105.68V26.0296H104.247V29.9705V29.964ZM101.471 32.069H102.904V23.9282H101.471V32.0716V32.069ZM98.739 36.0098H100.172V19.5243H98.7391V36.0126L98.739 36.0098ZM95.9625 33.4912H97.3956V22.3671H95.9625V33.494V33.4912ZM93.1331 30.5974H94.5661V25.4025H93.1331V30.5974Z" fill="#4DBF92"/>
<circle cx="33.5002" cy="27.5" r="15.5" fill="#4DBF92"/>
<path d="M35.9737 25.0103C37.5195 26.2715 38.2919 26.9011 38.2919 27.9792C38.2919 29.0573 37.5195 29.6879 35.9737 30.9481C35.5723 31.2789 35.1593 31.5953 34.7355 31.8969C34.3943 32.1365 34.0081 32.3837 33.6085 32.6271C32.0665 33.5644 31.296 34.033 30.6051 33.5146C29.9132 32.9951 29.8509 31.9093 29.7253 29.7358C29.6896 29.151 29.6701 28.5652 29.6669 27.9792C29.6669 27.4397 29.6889 26.8369 29.7244 26.2226C29.8509 24.0501 29.9132 22.9633 30.6051 22.4439C31.296 21.9254 32.0665 22.3941 33.6085 23.3313C34.0081 23.5747 34.3943 23.822 34.7355 24.0616C35.1593 24.3631 35.5723 24.6795 35.9737 25.0103Z" fill="white"/>
</svg>
