<svg width="149" height="35" viewBox="0 0 149 35" fill="none" xmlns="http://www.w3.org/2000/svg">
<mask id="path-1-inside-1_76_1325" fill="white">
<path d="M143.979 0C146.74 0 148.979 2.23877 148.979 5V30C148.979 32.7612 146.74 35 143.979 35H11.1653C8.40402 35 6.16554 32.7612 6.16528 30V21.2409C6.16528 20.9794 6.06287 20.7284 5.87999 20.5415L1.26375 15.8244C0.883386 15.4357 0.88336 14.8143 1.26369 14.4256L5.88005 9.70753C6.06289 9.52066 6.16528 9.26961 6.16528 9.00817V5C6.16551 2.23877 8.404 0 11.1653 0H143.979Z"/>
</mask>
<path d="M148.979 5H149.479V4.99996L148.979 5ZM148.979 30L149.479 30V30H148.979ZM6.16528 30H5.66528V30L6.16528 30ZM6.16528 5L5.66528 4.99996V5H6.16528ZM5.88005 9.70753L5.52267 9.35785L5.88005 9.70753ZM1.26375 15.8244L1.62111 15.4747L1.26375 15.8244ZM143.979 0V0.5C146.464 0.5 148.479 2.51488 148.479 5.00004L148.979 5L149.479 4.99996C149.479 1.96266 147.016 -0.5 143.979 -0.5V0ZM148.979 5H148.479V30H148.979H149.479V5H148.979ZM148.979 30L148.479 30C148.479 32.4851 146.464 34.5 143.979 34.5V35V35.5C147.016 35.5 149.478 33.0373 149.479 30L148.979 30ZM143.979 35V34.5H11.1653V35V35.5H143.979V35ZM11.1653 35V34.5C8.68021 34.5 6.66552 32.4851 6.66528 30L6.16528 30L5.66528 30C5.66557 33.0373 8.12783 35.5 11.1653 35.5V35ZM6.16528 30H6.66528V21.2409H6.16528H5.66528V30H6.16528ZM5.87999 20.5415L6.23734 20.1918L1.62111 15.4747L1.26375 15.8244L0.906398 16.1741L5.52264 20.8912L5.87999 20.5415ZM1.26369 14.4256L1.62108 14.7753L6.23743 10.0572L5.88005 9.70753L5.52267 9.35785L0.906309 14.0759L1.26369 14.4256ZM6.16528 9.00817H6.66528V5H6.16528H5.66528V9.00817H6.16528ZM6.16528 5L6.66528 5.00004C6.66549 2.51488 8.68018 0.5 11.1653 0.5V0V-0.5C8.12782 -0.5 5.66553 1.96266 5.66528 4.99996L6.16528 5ZM11.1653 0V0.5H143.979V0V-0.5H11.1653V0ZM5.88005 9.70753L6.23743 10.0572C6.5117 9.77691 6.66528 9.40033 6.66528 9.00817H6.16528H5.66528C5.66528 9.13889 5.61409 9.26441 5.52267 9.35785L5.88005 9.70753ZM1.26375 15.8244L1.62111 15.4747C1.43092 15.2803 1.43091 14.9696 1.62108 14.7753L1.26369 14.4256L0.906309 14.0759C0.33581 14.659 0.335849 15.5911 0.906398 16.1741L1.26375 15.8244ZM6.16528 21.2409H6.66528C6.66528 20.8487 6.51167 20.4721 6.23734 20.1918L5.87999 20.5415L5.52264 20.8912C5.61408 20.9846 5.66528 21.1102 5.66528 21.2409H6.16528Z" fill="#154734" mask="url(#path-1-inside-1_76_1325)"/>
</svg>
