<svg width="38" height="38" viewBox="0 0 38 38" fill="none" xmlns="http://www.w3.org/2000/svg">
<path d="M19 19.0001V15.0417L30.875 3.16675L34.8333 7.12508L22.9583 19.0001H19Z" fill="#E23434" stroke="#E23434" stroke-width="2" stroke-linecap="round" stroke-linejoin="round"/>
<path d="M12.6666 19H7.12496C6.07514 19 5.06833 19.417 4.32599 20.1594C3.58366 20.9017 3.16663 21.9085 3.16663 22.9583C3.16663 24.0081 3.58366 25.015 4.32599 25.7573C5.06833 26.4996 6.07514 26.9167 7.12496 26.9167H30.875C31.9248 26.9167 32.9316 27.3337 33.6739 28.076C34.4163 28.8184 34.8333 29.8252 34.8333 30.875C34.8333 31.9248 34.4163 32.9316 33.6739 33.674C32.9316 34.4163 31.9248 34.8333 30.875 34.8333H14.25" stroke="#E23434" stroke-width="2" stroke-linecap="round" stroke-linejoin="round"/>
<rect x="18" y="18" width="2" height="2" fill="#522900"/>
</svg>
