<svg width="23" height="18" viewBox="0 0 23 18" fill="none" xmlns="http://www.w3.org/2000/svg">
<path d="M4.53404 4.94824C4.745 5.10888 5.01114 5.1792 5.27395 5.14376C5.53676 5.10832 5.77474 4.97001 5.93559 4.75923C6.76742 3.66772 7.90173 2.84458 9.19758 2.39207C10.4934 1.93956 11.8937 1.87763 13.2245 2.21397C14.5553 2.5503 15.7578 3.27009 16.6829 4.2839C17.6079 5.29771 18.2145 6.56086 18.4275 7.91643L17.7172 7.20739C17.5285 7.02522 17.2758 6.92442 17.0135 6.92669C16.7512 6.92897 16.5003 7.03415 16.3148 7.21957C16.1294 7.40499 16.0242 7.65582 16.0219 7.91803C16.0196 8.18024 16.1204 8.43286 16.3027 8.62148L18.8036 11.1216C18.9912 11.3091 19.2456 11.4144 19.5109 11.4144C19.7762 11.4144 20.0306 11.3091 20.2182 11.1216L22.7192 8.62148C22.9014 8.43286 23.0022 8.18024 23 7.91803C22.9977 7.65582 22.8925 7.40499 22.707 7.21957C22.5215 7.03415 22.2706 6.92897 22.0083 6.92669C21.746 6.92442 21.4933 7.02522 21.3046 7.20739L20.4623 8.05044C20.2718 6.25826 19.5475 4.56451 18.3833 3.18845C17.219 1.81239 15.6683 0.817392 13.932 0.332254C12.1957 -0.152883 10.3537 -0.105817 8.64443 0.467361C6.93518 1.04054 5.43739 2.11344 4.34496 3.54716C4.18428 3.75805 4.11393 4.0241 4.14938 4.28683C4.18484 4.54955 4.32319 4.78745 4.53404 4.94824ZM2.79736 6.87837L0.296375 9.37852C0.11505 9.55808 0.00922997 9.80012 0.000575815 10.0551C-0.00807834 10.3101 0.0810875 10.5588 0.249822 10.7502C0.418557 10.9416 0.6541 11.0613 0.908239 11.0848C1.16238 11.1083 1.41589 11.0339 1.61689 10.8766L1.71093 10.7936L2.55426 9.95056C2.74177 11.7128 3.44545 13.3805 4.57709 14.7446C5.70873 16.1087 7.21799 17.1086 8.91567 17.6188C10.6134 18.1291 12.4239 18.127 14.1205 17.6129C15.817 17.0988 17.324 16.0955 18.4525 14.7289C18.6149 14.5237 18.6904 14.263 18.6629 14.0028C18.6353 13.7426 18.5068 13.5036 18.3049 13.337C18.1031 13.1705 17.844 13.0896 17.5832 13.1118C17.3224 13.134 17.0807 13.2575 16.9099 13.4558C16.0509 14.4957 14.9098 15.2655 13.6237 15.6727C12.3375 16.0799 10.9612 16.1072 9.65993 15.7512C8.35869 15.3953 7.18795 14.6713 6.2884 13.6662C5.38885 12.6612 4.79877 11.4178 4.58906 10.0856L5.29834 10.7936C5.47837 10.973 5.71994 11.0771 5.97399 11.0849C6.22804 11.0926 6.47551 11.0034 6.66615 10.8354C6.85679 10.6673 6.9763 10.433 7.00041 10.1801C7.02451 9.92716 6.9514 9.67453 6.79593 9.47353L6.71289 9.37952L4.21191 6.87937C4.03965 6.70718 3.81046 6.60374 3.56734 6.58846C3.32422 6.57318 3.08387 6.6471 2.89139 6.79636L2.79736 6.87837Z" fill="#4DBF92"/>
</svg>
