<svg width="24" height="25" viewBox="0 0 24 25" fill="none" xmlns="http://www.w3.org/2000/svg">
<g clip-path="url(#clip0_264_686)">
<path d="M23.5142 18.2727C23.5142 18.9611 23.2407 19.6213 22.754 20.1081C22.2672 20.5949 21.6069 20.8684 20.9185 20.8684H2.74876C2.06034 20.8684 1.40012 20.5949 0.913334 20.1081C0.426549 19.6213 0.153076 18.9611 0.153076 18.2727V15.677H23.5142V18.2727Z" fill="#CE2028"/>
<path d="M0.153076 9.18774H23.5142V15.6769H0.153076V9.18774Z" fill="#22408C"/>
<path d="M20.9185 3.99646H2.74876C2.06034 3.99646 1.40012 4.26993 0.913334 4.75672C0.426549 5.2435 0.153076 5.90372 0.153076 6.59214L0.153076 9.18782H23.5142V6.59214C23.5142 5.90372 23.2407 5.2435 22.754 4.75672C22.2672 4.26993 21.6069 3.99646 20.9185 3.99646Z" fill="white"/>
</g>
<defs>
<clipPath id="clip0_264_686">
<rect width="23.3611" height="23.3611" fill="white" transform="translate(0.153076 0.751831)"/>
</clipPath>
</defs>
</svg>
