<svg width="24" height="25" viewBox="0 0 24 25" fill="none" xmlns="http://www.w3.org/2000/svg">
<g clip-path="url(#clip0_264_679)">
<path d="M23.7195 17.1251C23.7195 17.9885 23.4452 18.8165 22.9567 19.4271C22.4683 20.0376 21.8059 20.3806 21.1152 20.3806H2.88453C2.1938 20.3806 1.53137 20.0376 1.04296 19.4271C0.55454 18.8165 0.280151 17.9885 0.280151 17.1251V13.8696H23.7195V17.1251Z" fill="#CE2028"/>
<path d="M0.280151 9.96313H23.7195V13.8697H0.280151V9.96313Z" fill="white"/>
<path d="M21.1152 3.45215H2.88453C2.1938 3.45215 1.53137 3.79513 1.04296 4.40565C0.55454 5.01617 0.280151 5.84422 0.280151 6.70762L0.280151 9.96309H23.7195V6.70762C23.7195 5.84422 23.4452 5.01617 22.9567 4.40565C22.4683 3.79513 21.8059 3.45215 21.1152 3.45215Z" fill="#008100"/>
</g>
<defs>
<clipPath id="clip0_264_679">
<rect width="23.4394" height="23.4394" fill="white" transform="translate(0.280151 0.847778)"/>
</clipPath>
</defs>
</svg>
